<mxfile host="app.diagrams.net" modified="2021-10-19T09:40:59.470Z" agent="5.0 (Windows NT 10.0; Win64; x64) AppleWebKit/537.36 (KHTML, like Gecko) Chrome/94.0.4606.81 Safari/537.36" etag="-woJe87B5_9tfzIcy4Tt" version="15.5.2" type="github">
  <diagram id="jbz8SORh-T-von_d11T7" name="Page-1">
    <mxGraphModel dx="2048" dy="575" grid="1" gridSize="10" guides="1" tooltips="1" connect="1" arrows="1" fold="1" page="1" pageScale="1" pageWidth="827" pageHeight="1169" math="0" shadow="0">
      <root>
        <mxCell id="0" />
        <mxCell id="1" parent="0" />
        <mxCell id="KOv9rOjFbUxxILJx4ASo-1" value="Patient" style="swimlane;fontStyle=1;align=center;verticalAlign=top;childLayout=stackLayout;horizontal=1;startSize=26;horizontalStack=0;resizeParent=1;resizeParentMax=0;resizeLast=0;collapsible=1;marginBottom=0;" vertex="1" parent="1">
          <mxGeometry x="1010" y="130" width="180" height="94" as="geometry" />
        </mxCell>
        <mxCell id="KOv9rOjFbUxxILJx4ASo-2" value="- insurance: StringÂ &#xa;" style="text;strokeColor=none;fillColor=none;align=left;verticalAlign=top;spacingLeft=4;spacingRight=4;overflow=hidden;rotatable=0;points=[[0,0.5],[1,0.5]];portConstraint=eastwest;" vertex="1" parent="KOv9rOjFbUxxILJx4ASo-1">
          <mxGeometry y="26" width="180" height="34" as="geometry" />
        </mxCell>
        <mxCell id="KOv9rOjFbUxxILJx4ASo-3" value="" style="line;strokeWidth=1;fillColor=none;align=left;verticalAlign=middle;spacingTop=-1;spacingLeft=3;spacingRight=3;rotatable=0;labelPosition=right;points=[];portConstraint=eastwest;" vertex="1" parent="KOv9rOjFbUxxILJx4ASo-1">
          <mxGeometry y="60" width="180" height="8" as="geometry" />
        </mxCell>
        <mxCell id="KOv9rOjFbUxxILJx4ASo-4" value="+ method(type): type" style="text;strokeColor=none;fillColor=none;align=left;verticalAlign=top;spacingLeft=4;spacingRight=4;overflow=hidden;rotatable=0;points=[[0,0.5],[1,0.5]];portConstraint=eastwest;" vertex="1" parent="KOv9rOjFbUxxILJx4ASo-1">
          <mxGeometry y="68" width="180" height="26" as="geometry" />
        </mxCell>
        <mxCell id="KOv9rOjFbUxxILJx4ASo-5" value="InsuranceCarrier" style="swimlane;fontStyle=1;align=center;verticalAlign=top;childLayout=stackLayout;horizontal=1;startSize=26;horizontalStack=0;resizeParent=1;resizeParentMax=0;resizeLast=0;collapsible=1;marginBottom=0;" vertex="1" parent="1">
          <mxGeometry x="-110" y="310" width="160" height="86" as="geometry" />
        </mxCell>
        <mxCell id="KOv9rOjFbUxxILJx4ASo-6" value="+ field: type" style="text;strokeColor=none;fillColor=none;align=left;verticalAlign=top;spacingLeft=4;spacingRight=4;overflow=hidden;rotatable=0;points=[[0,0.5],[1,0.5]];portConstraint=eastwest;" vertex="1" parent="KOv9rOjFbUxxILJx4ASo-5">
          <mxGeometry y="26" width="160" height="26" as="geometry" />
        </mxCell>
        <mxCell id="KOv9rOjFbUxxILJx4ASo-7" value="" style="line;strokeWidth=1;fillColor=none;align=left;verticalAlign=middle;spacingTop=-1;spacingLeft=3;spacingRight=3;rotatable=0;labelPosition=right;points=[];portConstraint=eastwest;" vertex="1" parent="KOv9rOjFbUxxILJx4ASo-5">
          <mxGeometry y="52" width="160" height="8" as="geometry" />
        </mxCell>
        <mxCell id="KOv9rOjFbUxxILJx4ASo-8" value="+ method(type): type" style="text;strokeColor=none;fillColor=none;align=left;verticalAlign=top;spacingLeft=4;spacingRight=4;overflow=hidden;rotatable=0;points=[[0,0.5],[1,0.5]];portConstraint=eastwest;" vertex="1" parent="KOv9rOjFbUxxILJx4ASo-5">
          <mxGeometry y="60" width="160" height="26" as="geometry" />
        </mxCell>
        <mxCell id="KOv9rOjFbUxxILJx4ASo-17" value="Doctor" style="swimlane;fontStyle=1;align=center;verticalAlign=top;childLayout=stackLayout;horizontal=1;startSize=26;horizontalStack=0;resizeParent=1;resizeParentMax=0;resizeLast=0;collapsible=1;marginBottom=0;" vertex="1" parent="1">
          <mxGeometry x="600" y="260" width="160" height="86" as="geometry" />
        </mxCell>
        <mxCell id="KOv9rOjFbUxxILJx4ASo-18" value="+ field: type" style="text;strokeColor=none;fillColor=none;align=left;verticalAlign=top;spacingLeft=4;spacingRight=4;overflow=hidden;rotatable=0;points=[[0,0.5],[1,0.5]];portConstraint=eastwest;" vertex="1" parent="KOv9rOjFbUxxILJx4ASo-17">
          <mxGeometry y="26" width="160" height="26" as="geometry" />
        </mxCell>
        <mxCell id="KOv9rOjFbUxxILJx4ASo-19" value="" style="line;strokeWidth=1;fillColor=none;align=left;verticalAlign=middle;spacingTop=-1;spacingLeft=3;spacingRight=3;rotatable=0;labelPosition=right;points=[];portConstraint=eastwest;" vertex="1" parent="KOv9rOjFbUxxILJx4ASo-17">
          <mxGeometry y="52" width="160" height="8" as="geometry" />
        </mxCell>
        <mxCell id="KOv9rOjFbUxxILJx4ASo-20" value="+ method(type): type" style="text;strokeColor=none;fillColor=none;align=left;verticalAlign=top;spacingLeft=4;spacingRight=4;overflow=hidden;rotatable=0;points=[[0,0.5],[1,0.5]];portConstraint=eastwest;" vertex="1" parent="KOv9rOjFbUxxILJx4ASo-17">
          <mxGeometry y="60" width="160" height="26" as="geometry" />
        </mxCell>
        <mxCell id="KOv9rOjFbUxxILJx4ASo-24" value="Person" style="swimlane;fontStyle=3;align=center;verticalAlign=top;childLayout=stackLayout;horizontal=1;startSize=26;horizontalStack=0;resizeParent=1;resizeParentMax=0;resizeLast=0;collapsible=1;marginBottom=0;" vertex="1" parent="1">
          <mxGeometry x="610" width="180" height="152" as="geometry" />
        </mxCell>
        <mxCell id="KOv9rOjFbUxxILJx4ASo-25" value="- name: String&#xa;- address: String&#xa;- phoneNumber: String&#xa;" style="text;strokeColor=none;fillColor=none;align=left;verticalAlign=top;spacingLeft=4;spacingRight=4;overflow=hidden;rotatable=0;points=[[0,0.5],[1,0.5]];portConstraint=eastwest;" vertex="1" parent="KOv9rOjFbUxxILJx4ASo-24">
          <mxGeometry y="26" width="180" height="74" as="geometry" />
        </mxCell>
        <mxCell id="KOv9rOjFbUxxILJx4ASo-26" value="" style="line;strokeWidth=1;fillColor=none;align=left;verticalAlign=middle;spacingTop=-1;spacingLeft=3;spacingRight=3;rotatable=0;labelPosition=right;points=[];portConstraint=eastwest;" vertex="1" parent="KOv9rOjFbUxxILJx4ASo-24">
          <mxGeometry y="100" width="180" height="8" as="geometry" />
        </mxCell>
        <mxCell id="KOv9rOjFbUxxILJx4ASo-27" value="+ method(type): type" style="text;strokeColor=none;fillColor=none;align=left;verticalAlign=top;spacingLeft=4;spacingRight=4;overflow=hidden;rotatable=0;points=[[0,0.5],[1,0.5]];portConstraint=eastwest;" vertex="1" parent="KOv9rOjFbUxxILJx4ASo-24">
          <mxGeometry y="108" width="180" height="44" as="geometry" />
        </mxCell>
        <mxCell id="KOv9rOjFbUxxILJx4ASo-28" value="" style="endArrow=block;endFill=0;endSize=12;html=1;rounded=0;exitX=0;exitY=0.5;exitDx=0;exitDy=0;entryX=0.998;entryY=0.61;entryDx=0;entryDy=0;entryPerimeter=0;" edge="1" parent="1" source="KOv9rOjFbUxxILJx4ASo-2" target="KOv9rOjFbUxxILJx4ASo-25">
          <mxGeometry width="160" relative="1" as="geometry">
            <mxPoint x="280" y="280" as="sourcePoint" />
            <mxPoint x="440" y="280" as="targetPoint" />
          </mxGeometry>
        </mxCell>
        <mxCell id="KOv9rOjFbUxxILJx4ASo-29" value="" style="endArrow=block;endFill=0;endSize=12;html=1;rounded=0;exitX=0.659;exitY=0.006;exitDx=0;exitDy=0;exitPerimeter=0;" edge="1" parent="1" source="KOv9rOjFbUxxILJx4ASo-17" target="KOv9rOjFbUxxILJx4ASo-27">
          <mxGeometry width="160" relative="1" as="geometry">
            <mxPoint x="630.0000000000005" y="212.0000000000001" as="sourcePoint" />
            <mxPoint x="719.9999999999995" y="152" as="targetPoint" />
          </mxGeometry>
        </mxCell>
        <mxCell id="KOv9rOjFbUxxILJx4ASo-30" style="edgeStyle=none;rounded=0;orthogonalLoop=1;jettySize=auto;html=1;exitX=1;exitY=0.25;exitDx=0;exitDy=0;endArrow=none;endFill=0;" edge="1" parent="1" source="KOv9rOjFbUxxILJx4ASo-17" target="KOv9rOjFbUxxILJx4ASo-4">
          <mxGeometry relative="1" as="geometry" />
        </mxCell>
        <mxCell id="KOv9rOjFbUxxILJx4ASo-31" value="1..*" style="edgeLabel;html=1;align=center;verticalAlign=middle;resizable=0;points=[];" vertex="1" connectable="0" parent="KOv9rOjFbUxxILJx4ASo-30">
          <mxGeometry x="0.4278" relative="1" as="geometry">
            <mxPoint x="32" y="-10" as="offset" />
          </mxGeometry>
        </mxCell>
        <mxCell id="KOv9rOjFbUxxILJx4ASo-32" value="1" style="edgeLabel;html=1;align=center;verticalAlign=middle;resizable=0;points=[];" vertex="1" connectable="0" parent="1">
          <mxGeometry x="720.0015315661643" y="210.003713859592" as="geometry">
            <mxPoint x="50" y="64" as="offset" />
          </mxGeometry>
        </mxCell>
        <mxCell id="KOv9rOjFbUxxILJx4ASo-33" value="Tends to" style="edgeLabel;html=1;align=center;verticalAlign=middle;resizable=0;points=[];" vertex="1" connectable="0" parent="1">
          <mxGeometry x="450.0015315661643" y="170.003713859592" as="geometry">
            <mxPoint x="444" y="78" as="offset" />
          </mxGeometry>
        </mxCell>
        <mxCell id="KOv9rOjFbUxxILJx4ASo-38" style="edgeStyle=none;rounded=0;orthogonalLoop=1;jettySize=auto;html=1;exitX=0.5;exitY=0;exitDx=0;exitDy=0;endArrow=none;endFill=0;" edge="1" parent="1" source="KOv9rOjFbUxxILJx4ASo-34" target="KOv9rOjFbUxxILJx4ASo-4">
          <mxGeometry relative="1" as="geometry" />
        </mxCell>
        <mxCell id="KOv9rOjFbUxxILJx4ASo-39" value="Insures" style="edgeLabel;html=1;align=center;verticalAlign=middle;resizable=0;points=[];" vertex="1" connectable="0" parent="KOv9rOjFbUxxILJx4ASo-38">
          <mxGeometry x="0.7715" y="2" relative="1" as="geometry">
            <mxPoint x="2" y="48" as="offset" />
          </mxGeometry>
        </mxCell>
        <mxCell id="KOv9rOjFbUxxILJx4ASo-34" value="Insurance Carrier" style="swimlane;fontStyle=1;align=center;verticalAlign=top;childLayout=stackLayout;horizontal=1;startSize=26;horizontalStack=0;resizeParent=1;resizeParentMax=0;resizeLast=0;collapsible=1;marginBottom=0;" vertex="1" parent="1">
          <mxGeometry x="1010" y="346" width="180" height="84" as="geometry" />
        </mxCell>
        <mxCell id="KOv9rOjFbUxxILJx4ASo-35" value="Â &#xa;&#xa;&#xa;" style="text;strokeColor=none;fillColor=none;align=left;verticalAlign=top;spacingLeft=4;spacingRight=4;overflow=hidden;rotatable=0;points=[[0,0.5],[1,0.5]];portConstraint=eastwest;" vertex="1" parent="KOv9rOjFbUxxILJx4ASo-34">
          <mxGeometry y="26" width="180" height="24" as="geometry" />
        </mxCell>
        <mxCell id="KOv9rOjFbUxxILJx4ASo-36" value="" style="line;strokeWidth=1;fillColor=none;align=left;verticalAlign=middle;spacingTop=-1;spacingLeft=3;spacingRight=3;rotatable=0;labelPosition=right;points=[];portConstraint=eastwest;" vertex="1" parent="KOv9rOjFbUxxILJx4ASo-34">
          <mxGeometry y="50" width="180" height="8" as="geometry" />
        </mxCell>
        <mxCell id="KOv9rOjFbUxxILJx4ASo-37" value="+ method(type): type" style="text;strokeColor=none;fillColor=none;align=left;verticalAlign=top;spacingLeft=4;spacingRight=4;overflow=hidden;rotatable=0;points=[[0,0.5],[1,0.5]];portConstraint=eastwest;" vertex="1" parent="KOv9rOjFbUxxILJx4ASo-34">
          <mxGeometry y="58" width="180" height="26" as="geometry" />
        </mxCell>
        <mxCell id="KOv9rOjFbUxxILJx4ASo-40" value="1..*" style="edgeLabel;html=1;align=center;verticalAlign=middle;resizable=0;points=[];" vertex="1" connectable="0" parent="1">
          <mxGeometry x="1099.9999999999995" y="240.00470588235294" as="geometry" />
        </mxCell>
        <mxCell id="KOv9rOjFbUxxILJx4ASo-41" value="1" style="edgeLabel;html=1;align=center;verticalAlign=middle;resizable=0;points=[];" vertex="1" connectable="0" parent="1">
          <mxGeometry x="1109.9999999999995" y="330.00470588235294" as="geometry">
            <mxPoint x="-7" as="offset" />
          </mxGeometry>
        </mxCell>
        <mxCell id="KOv9rOjFbUxxILJx4ASo-42" value="Visit" style="swimlane;fontStyle=1;align=center;verticalAlign=top;childLayout=stackLayout;horizontal=1;startSize=26;horizontalStack=0;resizeParent=1;resizeParentMax=0;resizeLast=0;collapsible=1;marginBottom=0;" vertex="1" parent="1">
          <mxGeometry x="1370" y="110" width="180" height="134" as="geometry" />
        </mxCell>
        <mxCell id="KOv9rOjFbUxxILJx4ASo-43" value="- patientName: String&#xa;- Date: String&#xa;- Time: String" style="text;strokeColor=none;fillColor=none;align=left;verticalAlign=top;spacingLeft=4;spacingRight=4;overflow=hidden;rotatable=0;points=[[0,0.5],[1,0.5]];portConstraint=eastwest;" vertex="1" parent="KOv9rOjFbUxxILJx4ASo-42">
          <mxGeometry y="26" width="180" height="74" as="geometry" />
        </mxCell>
        <mxCell id="KOv9rOjFbUxxILJx4ASo-44" value="" style="line;strokeWidth=1;fillColor=none;align=left;verticalAlign=middle;spacingTop=-1;spacingLeft=3;spacingRight=3;rotatable=0;labelPosition=right;points=[];portConstraint=eastwest;" vertex="1" parent="KOv9rOjFbUxxILJx4ASo-42">
          <mxGeometry y="100" width="180" height="8" as="geometry" />
        </mxCell>
        <mxCell id="KOv9rOjFbUxxILJx4ASo-45" value="+ method(type): type" style="text;strokeColor=none;fillColor=none;align=left;verticalAlign=top;spacingLeft=4;spacingRight=4;overflow=hidden;rotatable=0;points=[[0,0.5],[1,0.5]];portConstraint=eastwest;" vertex="1" parent="KOv9rOjFbUxxILJx4ASo-42">
          <mxGeometry y="108" width="180" height="26" as="geometry" />
        </mxCell>
        <mxCell id="KOv9rOjFbUxxILJx4ASo-51" value="attends" style="edgeStyle=none;rounded=0;orthogonalLoop=1;jettySize=auto;html=1;exitX=1;exitY=0.5;exitDx=0;exitDy=0;endArrow=none;endFill=0;" edge="1" parent="1" source="KOv9rOjFbUxxILJx4ASo-2" target="KOv9rOjFbUxxILJx4ASo-43">
          <mxGeometry relative="1" as="geometry" />
        </mxCell>
        <mxCell id="KOv9rOjFbUxxILJx4ASo-53" value="Insures" style="edgeLabel;html=1;align=center;verticalAlign=middle;resizable=0;points=[];" vertex="1" connectable="0" parent="1">
          <mxGeometry x="1099.9999999999995" y="285.7647058823529" as="geometry" />
        </mxCell>
        <mxCell id="KOv9rOjFbUxxILJx4ASo-54" value="1" style="edgeLabel;html=1;align=center;verticalAlign=middle;resizable=0;points=[];" vertex="1" connectable="0" parent="1">
          <mxGeometry x="1229.9999999999995" y="177.00470588235294" as="geometry">
            <mxPoint x="-26" y="-5" as="offset" />
          </mxGeometry>
        </mxCell>
        <mxCell id="KOv9rOjFbUxxILJx4ASo-55" value="0..*" style="edgeLabel;html=1;align=center;verticalAlign=middle;resizable=0;points=[];" vertex="1" connectable="0" parent="1">
          <mxGeometry x="1199.9999999999995" y="310.00470588235294" as="geometry">
            <mxPoint x="151" y="-139" as="offset" />
          </mxGeometry>
        </mxCell>
        <mxCell id="KOv9rOjFbUxxILJx4ASo-60" value="Generate" style="edgeStyle=none;rounded=0;orthogonalLoop=1;jettySize=auto;html=1;exitX=0.5;exitY=0;exitDx=0;exitDy=0;entryX=0.504;entryY=1.011;entryDx=0;entryDy=0;entryPerimeter=0;endArrow=none;endFill=0;" edge="1" parent="1" source="KOv9rOjFbUxxILJx4ASo-56" target="KOv9rOjFbUxxILJx4ASo-45">
          <mxGeometry relative="1" as="geometry" />
        </mxCell>
        <mxCell id="KOv9rOjFbUxxILJx4ASo-65" value="1" style="edgeLabel;html=1;align=center;verticalAlign=middle;resizable=0;points=[];" vertex="1" connectable="0" parent="KOv9rOjFbUxxILJx4ASo-60">
          <mxGeometry x="0.7639" y="3" relative="1" as="geometry">
            <mxPoint as="offset" />
          </mxGeometry>
        </mxCell>
        <mxCell id="KOv9rOjFbUxxILJx4ASo-66" value="1" style="edgeLabel;html=1;align=center;verticalAlign=middle;resizable=0;points=[];" vertex="1" connectable="0" parent="KOv9rOjFbUxxILJx4ASo-60">
          <mxGeometry x="-0.7441" y="-2" relative="1" as="geometry">
            <mxPoint as="offset" />
          </mxGeometry>
        </mxCell>
        <mxCell id="KOv9rOjFbUxxILJx4ASo-56" value="Claim" style="swimlane;fontStyle=1;align=center;verticalAlign=top;childLayout=stackLayout;horizontal=1;startSize=26;horizontalStack=0;resizeParent=1;resizeParentMax=0;resizeLast=0;collapsible=1;marginBottom=0;" vertex="1" parent="1">
          <mxGeometry x="1370" y="380" width="180" height="134" as="geometry" />
        </mxCell>
        <mxCell id="KOv9rOjFbUxxILJx4ASo-57" value="- date: String&#xa;- purpose: String&#xa;- cost: decimalÂ &#xa;&#xa;&#xa;" style="text;strokeColor=none;fillColor=none;align=left;verticalAlign=top;spacingLeft=4;spacingRight=4;overflow=hidden;rotatable=0;points=[[0,0.5],[1,0.5]];portConstraint=eastwest;" vertex="1" parent="KOv9rOjFbUxxILJx4ASo-56">
          <mxGeometry y="26" width="180" height="74" as="geometry" />
        </mxCell>
        <mxCell id="KOv9rOjFbUxxILJx4ASo-58" value="" style="line;strokeWidth=1;fillColor=none;align=left;verticalAlign=middle;spacingTop=-1;spacingLeft=3;spacingRight=3;rotatable=0;labelPosition=right;points=[];portConstraint=eastwest;" vertex="1" parent="KOv9rOjFbUxxILJx4ASo-56">
          <mxGeometry y="100" width="180" height="8" as="geometry" />
        </mxCell>
        <mxCell id="KOv9rOjFbUxxILJx4ASo-59" value="+ method(type): type" style="text;strokeColor=none;fillColor=none;align=left;verticalAlign=top;spacingLeft=4;spacingRight=4;overflow=hidden;rotatable=0;points=[[0,0.5],[1,0.5]];portConstraint=eastwest;" vertex="1" parent="KOv9rOjFbUxxILJx4ASo-56">
          <mxGeometry y="108" width="180" height="26" as="geometry" />
        </mxCell>
        <mxCell id="KOv9rOjFbUxxILJx4ASo-67" style="edgeStyle=none;rounded=0;orthogonalLoop=1;jettySize=auto;html=1;exitX=1;exitY=0.5;exitDx=0;exitDy=0;entryX=-0.003;entryY=0.384;entryDx=0;entryDy=0;entryPerimeter=0;endArrow=none;endFill=0;" edge="1" parent="1" source="KOv9rOjFbUxxILJx4ASo-35" target="KOv9rOjFbUxxILJx4ASo-57">
          <mxGeometry relative="1" as="geometry" />
        </mxCell>
        <mxCell id="KOv9rOjFbUxxILJx4ASo-68" value="1..*" style="edgeLabel;html=1;align=center;verticalAlign=middle;resizable=0;points=[];" vertex="1" connectable="0" parent="KOv9rOjFbUxxILJx4ASo-67">
          <mxGeometry x="0.7048" y="2" relative="1" as="geometry">
            <mxPoint as="offset" />
          </mxGeometry>
        </mxCell>
        <mxCell id="KOv9rOjFbUxxILJx4ASo-69" value="1" style="edgeLabel;html=1;align=center;verticalAlign=middle;resizable=0;points=[];" vertex="1" connectable="0" parent="KOv9rOjFbUxxILJx4ASo-67">
          <mxGeometry x="-0.8558" y="-2" relative="1" as="geometry">
            <mxPoint as="offset" />
          </mxGeometry>
        </mxCell>
        <mxCell id="KOv9rOjFbUxxILJx4ASo-70" value="Pay" style="edgeLabel;html=1;align=center;verticalAlign=middle;resizable=0;points=[];" vertex="1" connectable="0" parent="KOv9rOjFbUxxILJx4ASo-67">
          <mxGeometry x="-0.1815" y="-4" relative="1" as="geometry">
            <mxPoint as="offset" />
          </mxGeometry>
        </mxCell>
      </root>
    </mxGraphModel>
  </diagram>
</mxfile>
